# xmcd
#
# Track frame offsets:
# 150
# 23297
# 42303
# 62005
# 76700
# 92108
# 110037
# 126339
# 142806
# 161551
# 176422
# 188107
# 200447
# 218010
#
# Disc length: 3305 seconds
#
#
# Revision: 0
# Processed by: cddbd v1.5.2PL0 Copyright (c) Steve Scherf et al.
# Submitted via: FreeRIP 2.942 
#
DISCID=b30ce70e
DTITLE=Milionario e Jose Rico  - Atravessando Gerações 
DYEAR=2008
DGENRE=
TTITLE0=Vontade Dividida
TTITLE1=Solidao
TTITLE2=O ultimo Julgamento
TTITLE3=Majestade a Mulher
TTITLE4=Tristeza
TTITLE5=Decida
TTITLE6=O dia da Vitoria
TTITLE7=Pot Pourri
TTITLE8=a Carta
TTITLE9=Anjo Loiro
TTITLE10=a garca pantaneira
TTITLE11=Do mundo nada se leva
TTITLE12=Viva a Vida
TTITLE13=Sonhei com vc - Estrada da Vida
EXTD=
EXTT0=
EXTT1=
EXTT2=
EXTT3=
EXTT4=
EXTT5=
EXTT6=
EXTT7=
EXTT8=
EXTT9=
EXTT10=
EXTT11=
EXTT12=
EXTT13=
PLAYORDER=
